<?xml version="1.0" standalone="no"?>
<!DOCTYPE svg PUBLIC "-//W3C//DTD SVG 20010904//EN"
 "http://www.w3.org/TR/2001/REC-SVG-20010904/DTD/svg10.dtd">
<svg version="1.0" xmlns="http://www.w3.org/2000/svg"
 width="232.000000pt" height="232.000000pt" viewBox="0 0 232.000000 232.000000"
 preserveAspectRatio="xMidYMid meet">

<g transform="translate(0.000000,232.000000) scale(0.100000,-0.100000)"
fill="#000000" stroke="none">
<path d="M0 1160 l0 -1160 1160 0 1160 0 0 1160 0 1160 -1160 0 -1160 0 0
-1160z m536 684 c16 -3 57 -65 156 -236 74 -128 208 -360 298 -515 89 -156
166 -283 169 -283 4 0 135 223 291 496 157 273 294 507 305 520 17 20 32 25
95 30 l76 7 62 -95 c34 -52 62 -99 62 -105 0 -6 -89 -166 -198 -355 -767
-1327 -688 -1197 -707 -1176 -6 7 -66 107 -132 223 -67 116 -204 354 -306 530
-381 661 -437 760 -437 778 0 19 92 164 117 184 13 10 90 9 149 -3z"/>
<path d="M450 1810 c0 -6 99 -183 221 -393 122 -210 280 -484 352 -609 101
-175 134 -225 143 -215 6 6 47 75 91 152 44 77 198 344 342 594 144 249 265
460 268 467 8 21 -51 18 -69 -3 -8 -10 -130 -220 -272 -466 -331 -576 -356
-617 -365 -617 -5 0 -127 206 -272 458 -145 251 -287 498 -315 547 -49 85 -54
90 -88 93 -21 2 -36 -1 -36 -8z"/>
<path d="M360 1730 l-41 -60 17 -32 c9 -18 106 -186 214 -373 108 -187 286
-495 395 -685 109 -190 203 -351 209 -358 9 -9 79 104 311 505 164 285 352
610 418 722 131 227 127 207 64 295 l-35 48 -40 -68 c-22 -38 -185 -321 -362
-629 -177 -308 -327 -566 -332 -572 -6 -7 -16 -13 -23 -13 -7 0 -53 71 -103
158 -49 86 -194 339 -323 562 -128 223 -252 440 -276 483 -24 42 -46 77 -48
77 -2 0 -23 -27 -45 -60z"/>
</g>
</svg>
